<?xml version="1.0" encoding="utf-8" ?>
<!DOCTYPE svg PUBLIC "-//W3C//DTD SVG 1.1//EN" "http://www.w3.org/Graphics/SVG/1.1/DTD/svg11.dtd">
<svg id="svgElement" xmlns="http://www.w3.org/2000/svg" xmlns:xlink="http://www.w3.org/1999/xlink" width="420mm" height="297mm" viewBox="0 0 420 297">
 <title>==EES==Function_macros++Infrastructure++PLC++CPU++Main_page++Power_supply&amp;Multi_line#01/2</title>
 <g id="transformation" transform="matrix(1,0,0,-1,-0,297)">
  <defs>
   <style type="text/css"><![CDATA[
svg{background:rgb(255,255,255)}
.P1{stroke: rgb(0,0,0); stroke-width: 0.25; stroke-linecap: square; stroke-dasharray: none; fill: none}
.P0{stroke: rgb(0,0,0); stroke-width: 0.35; stroke-linecap: square; stroke-dasharray: none; fill: none}
.P2{stroke: rgb(0,0,0); stroke-width: 0.35; stroke-linecap: butt; stroke-dasharray: none; fill: none}
text.F3{fill: rgb(0,0,0); font-size: 2.2356px; text-anchor: start; dominant-baseline: text-before-edge; font-family: Tahoma,Verdana}
text.F6{fill: rgb(0,0,0); font-size: 2.2356px; text-anchor: start; dominant-baseline: text-before-edge; font-family: Tahoma,Verdana}
text.F2{fill: rgb(0,0,255); font-size: 2.2356px; text-anchor: start; dominant-baseline: text-before-edge; font-family: Tahoma,Verdana}
text.F5{fill: rgb(0,0,255); font-size: 2.2356px; text-anchor: start; dominant-baseline: text-before-edge; font-family: Tahoma,Verdana}
text.F0{fill: rgb(0,0,255); font-size: 2.2356px; text-anchor: start; dominant-baseline: text-before-edge; font-family: Tahoma,Verdana}
text.F7{fill: rgb(0,0,255); font-size: 2.2356px; text-anchor: start; dominant-baseline: text-before-edge; font-family: Tahoma,Verdana}
text.F1{fill: rgb(0,0,255); font-size: 3.105px; text-anchor: start; dominant-baseline: text-before-edge; font-family: Tahoma,Verdana}
text.F4{fill: rgb(0,0,255); font-size: 3.726px; text-anchor: start; dominant-baseline: text-before-edge; font-family: Tahoma,Verdana}

]]></style>
  </defs>
  <g transform="scale(1)" id="page">
   <desc>Page</desc>
  </g>
  <g>
   <desc>Frame</desc>
   <g>
    <desc>group</desc>
    <g>
     <desc>group</desc>
     <path class="P0" d="M 4 292 H 420"/>
     <text class="F0" transform="translate(71.3676 295.724) scale(1, -1)">1</text>
     <text class="F0" transform="translate(311.374 295.781) scale(1, -1)">7</text>
     <text class="F0" transform="translate(271.383 295.77) scale(1, -1)">6</text>
     <text class="F0" transform="translate(351.388 295.799) scale(1, -1)">8</text>
     <text class="F0" transform="translate(395.39 295.808) scale(1, -1)">9</text>
     <text class="F0" transform="translate(151.372 295.734) scale(1, -1)">3</text>
     <path class="P0" d="M 0 16 H 420"/>
     <path class="P0" d="M 0 0 H 420 V 297 H 0 Z"/>
     <path class="P1" d="M 52.0003 297 52.0003 292"/>
     <text class="F0" transform="translate(191.386 295.763) scale(1, -1)">4</text>
     <text class="F0" transform="translate(111.36 295.753) scale(1, -1)">2</text>
     <text class="F0" transform="translate(231.412 295.757) scale(1, -1)">5</text>
     <path class="P2" d="M 4.00157 297.019 V 16.0193"/>
     <text class="F1" transform="translate(114.5 15.75) scale(1, -1)">Power Supply</text>
     <path class="P1" d="M 92.0007 297 92.0007 292"/>
     <path class="P1" d="M 132.002 297 132.002 292"/>
     <path class="P1" d="M 171.997 297 171.997 292"/>
     <path class="P1" d="M 211.997 297 211.997 292"/>
     <path class="P1" d="M 252 297 V 292"/>
     <path class="P1" d="M 291.999 297 291.999 292"/>
     <path class="P1" d="M 332.004 297 332.004 292"/>
     <path class="P1" d="M 372 297 V 292"/>
     <text class="F0" transform="translate(27.3727 295.732) scale(1, -1)">0</text>
     <text class="F2" transform="rotate(90 0.443383 16.5057) translate(0.443383 16.5057) scale(1, -1)">Das Dokument ist urheberrechtlich geschützt. Weitergabe sowie Vervielfältigung dieses Dokuments, seine Verwertung und Mitteilung seines Inhalts sind verboten, soweit nicht ausdrücklich gestattet.</text>
     <text class="F3" transform="rotate(90 109.252 1.37) translate(109.252 1.37) scale(1, -1)">Beschreibung</text>
     <text class="F4" transform="translate(72.3773 10.25) scale(1, -1)">Multi-line</text>
     <text class="F5" transform="translate(5.2523 10.7) scale(1, -1)">Infrastructure++PLC++CPU++Main_page++Power_su</text>
     <text class="F5" transform="translate(5.2523 8) scale(1, -1)">pply</text>
     <text class="F5" transform="translate(5.2523 15.75) scale(1, -1)">EES==Function_macros</text>
     <text class="F3" transform="rotate(90 2.4869e-14 -0.1) translate(2.4869e-14 -0.1) scale(1, -1)">Makro-Kategorie</text>
     <text class="F5" transform="translate(5.2523 2.95) scale(1, -1)">01</text>
     <path class="P0" d="M 60.0023 0 V 16"/>
     <text class="F3" transform="rotate(90 60.0023 0.39) translate(60.0023 0.39) scale(1, -1)">Art der Anzeige</text>
     <path class="P0" d="M 96.7523 0 V 16"/>
     <text class="F3" transform="rotate(90 96.7523 1.015) translate(96.7523 1.015) scale(1, -1)">Makrovariante</text>
     <text class="F4" transform="translate(103.481 10.25) scale(1, -1)">2</text>
     <path class="P0" d="M 109.252 0 V 16"/>
     <path class="P1" d="M 378.5 6.4 V 3.2"/>
     <text class="F6" transform="translate(379.25 6.15) scale(1, -1)">Ed.</text>
     <text class="F6" transform="translate(355.75 6.15) scale(1, -1)">Datum</text>
     <text class="F7" transform="translate(406.71 6.15) scale(1, -1)">DE00021659</text>
     <text class="F7" transform="translate(366.27 6.15) scale(1, -1)">02/12/2022</text>
     <text class="F7" transform="translate(415.48 2.95) scale(1, -1)">EES</text>
     <text class="F6" transform="translate(355.75 2.95) scale(1, -1)">Genehmigt von</text>
     <path class="P1" d="M 355 3.2 H 378.5"/>
     <path class="P1" d="M 355 0 V 3.2"/>
     <path class="P1" d="M 355 3.2 V 6.4"/>
     <path class="P1" d="M 355 0 V 3.2"/>
     <path class="P1" d="M 355 3.2 V 6.4"/>
     <path class="P1" d="M 378.5 3.2 H 420"/>
     <path class="P1" d="M 355 6.4 H 420"/>
     <image x="413.25" y="6.75787840193139" preserveAspectRatio="none" height="8.71710526315791" width="6.25" xlink:href="EPLAN.png" transform="translate(413.25 11.1164) scale(1,-1) translate(-413.25 -11.1164)"/>
     <path class="P0" d="M 184.25 0 V 16"/>
     <text class="F3" transform="rotate(90 184.25 1.725) translate(184.25 1.725) scale(1, -1)">Makro-Name</text>
    </g>
   </g>
  </g>
  <g transform="scale(1)" id="page">
   <desc>Page</desc>
  </g>
 </g>
 <script type="text/ecmascript" xlink:href="SVGScripting.js"/>
</svg>
