<?xml version="1.0" encoding="utf-8" ?>
<!DOCTYPE svg PUBLIC "-//W3C//DTD SVG 1.1//EN" "http://www.w3.org/Graphics/SVG/1.1/DTD/svg11.dtd">
<svg id="svgElement" xmlns="http://www.w3.org/2000/svg" xmlns:xlink="http://www.w3.org/1999/xlink" width="420mm" height="297mm" viewBox="0 0 420 297">
 <title>==EES==Page_macros++Infrastructure++Control_voltage++DC10V&amp;Multi_line#01/1</title>
 <g id="transformation" transform="matrix(1,0,0,-1,-0,297)">
  <defs>
   <style type="text/css"><![CDATA[
svg{background:rgb(255,255,255)}
.P1{stroke: rgb(0,0,0); stroke-width: 0.25; stroke-linecap: square; stroke-dasharray: none; fill: none}
.P0{stroke: rgb(0,0,0); stroke-width: 0.35; stroke-linecap: square; stroke-dasharray: none; fill: none}
.P2{stroke: rgb(0,0,0); stroke-width: 0.35; stroke-linecap: butt; stroke-dasharray: none; fill: none}
.P4{stroke: rgb(255,0,0); stroke-width: 0.25; stroke-linecap: round; stroke-dasharray: none; fill: none}
.P3{stroke: rgb(0,0,255); stroke-width: 0.25; stroke-linecap: round; stroke-dasharray: none; fill: none}
text.F3{fill: rgb(0,0,0); font-size: 2.2356px; text-anchor: start; dominant-baseline: text-before-edge; font-family: Tahoma,Verdana}
text.F6{fill: rgb(0,0,0); font-size: 2.2356px; text-anchor: start; dominant-baseline: text-before-edge; font-family: Tahoma,Verdana}
text.F9{fill: rgb(0,0,0); font-size: 2.2356px; text-anchor: start; dominant-baseline: text-before-edge; font-family: Tahoma,Verdana}
text.F2{fill: rgb(0,0,255); font-size: 2.2356px; text-anchor: start; dominant-baseline: text-before-edge; font-family: Tahoma,Verdana}
text.F5{fill: rgb(0,0,255); font-size: 2.2356px; text-anchor: start; dominant-baseline: text-before-edge; font-family: Tahoma,Verdana}
text.F0{fill: rgb(0,0,255); font-size: 2.2356px; text-anchor: start; dominant-baseline: text-before-edge; font-family: Tahoma,Verdana}
text.F7{fill: rgb(0,0,255); font-size: 2.2356px; text-anchor: start; dominant-baseline: text-before-edge; font-family: Tahoma,Verdana}
text.F1{fill: rgb(0,0,255); font-size: 3.105px; text-anchor: start; dominant-baseline: text-before-edge; font-family: Tahoma,Verdana}
text.F8{fill: rgb(0,0,255); font-size: 3.105px; text-anchor: start; dominant-baseline: text-before-edge; font-family: Tahoma,Verdana}
text.F4{fill: rgb(0,0,255); font-size: 3.726px; text-anchor: start; dominant-baseline: text-before-edge; font-family: Tahoma,Verdana}

]]></style>
  </defs>
  <g transform="scale(1)" id="page">
   <desc>Page</desc>
  </g>
  <g>
   <desc>Frame</desc>
   <g>
    <desc>group</desc>
    <g>
     <desc>group</desc>
     <path class="P0" d="M 4 292 H 420"/>
     <text class="F0" transform="translate(71.3676 295.724) scale(1, -1)">1</text>
     <text class="F0" transform="translate(311.374 295.781) scale(1, -1)">7</text>
     <text class="F0" transform="translate(271.383 295.77) scale(1, -1)">6</text>
     <text class="F0" transform="translate(351.388 295.799) scale(1, -1)">8</text>
     <text class="F0" transform="translate(395.39 295.808) scale(1, -1)">9</text>
     <text class="F0" transform="translate(151.372 295.734) scale(1, -1)">3</text>
     <path class="P0" d="M 0 16 H 420"/>
     <path class="P0" d="M 0 0 H 420 V 297 H 0 Z"/>
     <path class="P1" d="M 52.0003 297 52.0003 292"/>
     <text class="F0" transform="translate(191.386 295.763) scale(1, -1)">4</text>
     <text class="F0" transform="translate(111.36 295.753) scale(1, -1)">2</text>
     <text class="F0" transform="translate(231.412 295.757) scale(1, -1)">5</text>
     <path class="P2" d="M 4.00157 297.019 V 16.0193"/>
     <text class="F1" transform="translate(114.5 15.75) scale(1, -1)">Dummy</text>
     <path class="P1" d="M 92.0007 297 92.0007 292"/>
     <path class="P1" d="M 132.002 297 132.002 292"/>
     <path class="P1" d="M 171.997 297 171.997 292"/>
     <path class="P1" d="M 211.997 297 211.997 292"/>
     <path class="P1" d="M 252 297 V 292"/>
     <path class="P1" d="M 291.999 297 291.999 292"/>
     <path class="P1" d="M 332.004 297 332.004 292"/>
     <path class="P1" d="M 372 297 V 292"/>
     <text class="F0" transform="translate(27.3727 295.732) scale(1, -1)">0</text>
     <text class="F2" transform="rotate(90 0.443383 16.5057) translate(0.443383 16.5057) scale(1, -1)">Das Dokument ist urheberrechtlich geschützt. Weitergabe sowie Vervielfältigung dieses Dokuments, seine Verwertung und Mitteilung seines Inhalts sind verboten, soweit nicht ausdrücklich gestattet.</text>
     <text class="F3" transform="rotate(90 109.252 1.37) translate(109.252 1.37) scale(1, -1)">Beschreibung</text>
     <text class="F4" transform="translate(72.3773 10.25) scale(1, -1)">Multi-line</text>
     <text class="F5" transform="translate(5.2523 9.35) scale(1, -1)">Infrastructure++Control_voltage++DC10V</text>
     <text class="F5" transform="translate(5.2523 15.75) scale(1, -1)">EES==Page_macros</text>
     <text class="F3" transform="rotate(90 2.4869e-14 -0.1) translate(2.4869e-14 -0.1) scale(1, -1)">Makro-Kategorie</text>
     <text class="F5" transform="translate(5.2523 2.95) scale(1, -1)">01</text>
     <path class="P0" d="M 60.0023 0 V 16"/>
     <text class="F3" transform="rotate(90 60.0023 0.39) translate(60.0023 0.39) scale(1, -1)">Art der Anzeige</text>
     <path class="P0" d="M 96.7523 0 V 16"/>
     <text class="F3" transform="rotate(90 96.7523 1.015) translate(96.7523 1.015) scale(1, -1)">Makrovariante</text>
     <text class="F4" transform="translate(103.481 10.25) scale(1, -1)">1</text>
     <path class="P0" d="M 109.252 0 V 16"/>
     <path class="P1" d="M 378.5 6.4 V 3.2"/>
     <text class="F6" transform="translate(379.25 6.15) scale(1, -1)">Ed.</text>
     <text class="F6" transform="translate(355.75 6.15) scale(1, -1)">Datum</text>
     <text class="F7" transform="translate(409.95 6.15) scale(1, -1)">CD.Lopez</text>
     <text class="F7" transform="translate(366.27 6.15) scale(1, -1)">13/07/2026</text>
     <text class="F7" transform="translate(415.48 2.95) scale(1, -1)">EES</text>
     <text class="F6" transform="translate(355.75 2.95) scale(1, -1)">Genehmigt von</text>
     <path class="P1" d="M 355 3.2 H 378.5"/>
     <path class="P1" d="M 355 0 V 3.2"/>
     <path class="P1" d="M 355 3.2 V 6.4"/>
     <path class="P1" d="M 355 0 V 3.2"/>
     <path class="P1" d="M 355 3.2 V 6.4"/>
     <path class="P1" d="M 378.5 3.2 H 420"/>
     <path class="P1" d="M 355 6.4 H 420"/>
     <image x="413.25" y="6.75787840193139" preserveAspectRatio="none" height="8.71710526315791" width="6.25" xlink:href="EPLAN.png" transform="translate(413.25 11.1164) scale(1,-1) translate(-413.25 -11.1164)"/>
     <path class="P0" d="M 184.25 0 V 16"/>
     <text class="F3" transform="rotate(90 184.25 1.725) translate(184.25 1.725) scale(1, -1)">Makro-Name</text>
    </g>
   </g>
  </g>
  <g transform="scale(1)" id="page">
   <desc>Page</desc>
   <g>
    <desc>group</desc>
    <g>
     <desc>group</desc>
     <g>
      <desc>group</desc>
      <g/>
      <g id="Id17_4180">
       <title>==EES==Page_macros=++Infrastructure++Control_voltage++DC10V+#01-K1:SH</title>
       <desc>Symbol</desc>
       <a xlink:href="javascript:jumpToFunction(&apos;&apos;,0,0,0,0,&apos;Id17_4180&apos;,0,0)">
        <g>
         <text class="F8" transform="translate(94.34 200) scale(1, -1)">-K1</text>
         <text class="F9" transform="rotate(90 104.8 204) translate(104.8 204) scale(1, -1)">SH</text>
         <g>
          <desc>group</desc>
          <path class="P3" d="M 100 196 H 140 V 200 H 100 Z"/>
          <path class="P3" d="M 100 172 H 140 V 180 H 100 Z"/>
          <path class="P4" d="M 108 200 V 201"/>
          <path class="P3" d="M 100 184 H 140 V 188 H 100 Z"/>
          <path class="P3" d="M 100 188 H 140 V 192 H 100 Z"/>
          <path class="P3" d="M 100 180 H 140 V 184 H 100 Z"/>
          <path class="P3" d="M 100 192 H 140 V 196 H 100 Z"/>
         </g>
        </g>
       </a>
      </g>
     </g>
     <g>
      <desc>group</desc>
      <g/>
      <g id="Id17_4181">
       <title>==EES==Page_macros=++Infrastructure++Control_voltage++DC10V+#01-K2:SH</title>
       <desc>Symbol</desc>
       <a xlink:href="javascript:jumpToFunction(&apos;&apos;,0,0,0,0,&apos;Id17_4181&apos;,0,0)">
        <g>
         <text class="F8" transform="translate(206.34 160) scale(1, -1)">-K2</text>
         <text class="F9" transform="rotate(90 216.8 164) translate(216.8 164) scale(1, -1)">SH</text>
         <g>
          <desc>group</desc>
          <path class="P3" d="M 212 156 H 252 V 160 H 212 Z"/>
          <path class="P3" d="M 212 132 H 252 V 140 H 212 Z"/>
          <path class="P4" d="M 220 160 V 161"/>
          <path class="P3" d="M 212 144 H 252 V 148 H 212 Z"/>
          <path class="P3" d="M 212 148 H 252 V 152 H 212 Z"/>
          <path class="P3" d="M 212 140 H 252 V 144 H 212 Z"/>
          <path class="P3" d="M 212 152 H 252 V 156 H 212 Z"/>
         </g>
        </g>
       </a>
      </g>
     </g>
    </g>
   </g>
  </g>
 </g>
 <script type="text/ecmascript" xlink:href="SVGScripting.js"/>
</svg>
